<svg width="24" height="24" viewBox="0 0 24 24" fill="none" xmlns="http://www.w3.org/2000/svg">
<path d="M2.25 12C2.25 17.385 6.615 21.75 12 21.75C17.385 21.75 21.75 17.385 21.75 12C21.75 6.615 17.385 2.25 12 2.25C6.615 2.25 2.25 6.615 2.25 12ZM9.482 8.818C9.482 8.61909 9.56102 8.42832 9.70167 8.28767C9.84232 8.14702 10.0331 8.068 10.232 8.068H15.182C15.3809 8.068 15.5717 8.14702 15.7123 8.28767C15.853 8.42832 15.932 8.61909 15.932 8.818V13.768C15.932 13.9669 15.853 14.1577 15.7123 14.2983C15.5717 14.439 15.3809 14.518 15.182 14.518C14.9831 14.518 14.7923 14.439 14.6517 14.2983C14.511 14.1577 14.432 13.9669 14.432 13.768V10.628L9.348 15.712C9.27934 15.7857 9.19654 15.8448 9.10454 15.8858C9.01254 15.9268 8.91323 15.9488 8.81252 15.9506C8.71182 15.9524 8.61179 15.9338 8.5184 15.8961C8.42501 15.8584 8.34018 15.8023 8.26896 15.731C8.19774 15.6598 8.1416 15.575 8.10388 15.4816C8.06616 15.3882 8.04763 15.2882 8.04941 15.1875C8.05118 15.0868 8.07323 14.9875 8.11422 14.8955C8.15521 14.8035 8.21431 14.7207 8.288 14.652L13.371 9.568H10.232C10.0331 9.568 9.84232 9.48898 9.70167 9.34833C9.56102 9.20768 9.482 9.01691 9.482 8.818Z" fill="white"/>
</svg>
