<?xml version="1.0" encoding="utf-8"?>
<!-- Generator: Adobe Illustrator 27.5.0, SVG Export Plug-In . SVG Version: 6.00 Build 0)  -->
<svg version="1.1" xmlns="http://www.w3.org/2000/svg" xmlns:xlink="http://www.w3.org/1999/xlink" x="0px" y="0px"
	 viewBox="0 0 500 500" style="enable-background:new 0 0 500 500;" xml:space="preserve">
<g id="BACKGROUND">
	<rect style="fill:#F9FBFC;" width="500" height="500"/>
</g>
<g id="OBJECTS">
	<g>
		<g>
			<g>
				<path style="fill:#FA6564;" d="M414.617,285.199c0,15.333-2.096,30.181-6.027,44.271c-8.312-3.907-15.535-7.306-19.537-9.188
					v-0.012c-2.12-0.995-3.339-1.563-3.339-1.563s0,0-0.983-2.285c-0.983-2.285-32.004-32.016-34.609-34.574
					c-2.569-2.522-4.878-0.035-9.389,0c3.315-20.91,1.255-46.355,0.391-56.727c-0.178-2.19-0.462-4.736-0.841-7.59
					c0,0,5.091,1.385,8.691-3.185c3.102-3.955-0.983-23.385-1.314-37.238c-0.047-1.989-0.012-3.86,0.13-5.565
					c5.778-0.864,12.018-1.977,17.95-3.386C395.91,197.983,414.617,239.413,414.617,285.199z"/>
				<path style="fill:#253A45;" d="M389.054,320.282c4.002,1.883,11.225,5.281,19.537,9.188
					c-8.726,31.365-26.522,58.965-50.369,79.78l-13.119-27.553c1.078,0.024,11.083,0.142,20.034-0.77
					c9.472-0.983,13.226-5.695,13.226-5.695l0.012-0.083L389.054,320.282z"/>
				<path style="fill:#1A2B32;" d="M389.054,320.27v0.012l-10.68,54.868c0.178-1.61,3.22-27.979,7.341-56.443
					C385.715,318.707,386.935,319.276,389.054,320.27z"/>
				<path style="fill:#253A45;" d="M312.672,379.934c6.998-20.294,13.498-41.358,18.589-59.652c0.012,0,0.012-0.012,0.012-0.012
					c0.308-1.137,0.616-2.25,0.923-3.363l0.012-0.012c2.463-9.022,4.57-17.299,6.181-24.356c0-0.012,0.012-0.012,0.012-0.024
					c0.971-3.339,1.729-6.927,2.332-10.668c4.511-0.035,6.82-2.522,9.389,0c2.605,2.557,33.627,32.289,34.609,34.574
					c0.983,2.285,0.983,2.285,0.983,2.285c-4.12,28.464-7.163,54.833-7.341,56.443l-0.012,0.083c0,0-31.495,6.11-33.271,6.453
					l-10.242-21.502l18.755,52.962c-19.466,15.783-42.602,27.221-67.94,32.81C294.248,429.865,303.863,405.509,312.672,379.934z
					 M339.988,321.975c0.343-0.616,5.719-10.609,7.27-19.596c1.587-9.271,0-17.725,0-17.725S346.666,299.585,339.988,321.975z"/>
				<path style="fill:#1A2B32;" d="M378.362,375.233c0,0-3.753,4.712-13.226,5.695c-8.951,0.912-18.956,0.793-20.034,0.77
					l-0.012-0.012C346.867,381.343,378.362,375.233,378.362,375.233z"/>
				<path style="fill:#1A2B32;" d="M345.103,381.698l13.119,27.553c-1.516,1.338-3.055,2.629-4.618,3.895l-18.755-52.962
					l10.242,21.502L345.103,381.698z"/>
				<path style="fill:#80A1AD;" d="M348.726,205.596c0.012,0.533-0.012,4.026-1.752,6.465c-2.676,3.742-8.608,3.718-4.357,3.351
					C348.205,214.927,349.199,211.363,348.726,205.596z M347.66,177.108c0.332,13.853,4.416,33.283,1.314,37.238
					c-3.599,4.57-8.691,3.185-8.691,3.185c-0.947-7.199-2.487-16.375-4.44-26.795c4.168-0.722,6.263,13.486,6.714,9.401
					c0.059-0.592,0.071-1.267,0.035-2.013l2.948-0.189c0,0-0.083-12.705-0.414-21.017
					C346.251,177.12,347.151,177.215,347.66,177.108z"/>
				<path style="fill:#F9FBFC;" d="M348.726,205.596c0.474,5.766-0.521,9.33-6.11,9.816c-4.251,0.367,1.681,0.391,4.357-3.351
					C348.714,209.622,348.738,206.129,348.726,205.596z"/>
				<path style="fill:#526C77;" d="M347.79,171.544c-0.142,1.705-0.178,3.576-0.13,5.565c-0.509,0.107-1.409,0.012-2.534-0.189
					c-0.059-1.563-0.118-2.96-0.201-4.097c-0.485-7.223-8.205-10.289-13.012-1.906c-0.675-3.268-1.385-6.607-2.108-9.993
					c10.976-4.073,19.193-1.835,18.021,10.147C347.814,171.224,347.802,171.39,347.79,171.544z"/>
				<path style="fill:#526C77;" d="M347.258,284.655c0,0,1.587,8.454,0,17.725c-1.551,8.987-6.927,18.98-7.27,19.596
					C346.666,299.585,347.258,284.655,347.258,284.655z"/>
				<path style="fill:#80A1AD;" d="M345.541,197.936l-2.948,0.189c-0.26-4.393-2.463-10.81-7.507-11.319
					c-0.722-3.753-1.492-7.649-2.309-11.651c1.279-0.343,3.292-0.118,5.447,0.284c0.758,0.604,1.527,1.385,2.297,2.404
					C344.676,183.36,345.541,197.936,345.541,197.936z"/>
				<path style="fill:#1A2B32;" d="M345.126,176.919c0.331,8.312,0.414,21.017,0.414,21.017s-0.864-14.576-5.02-20.093
					c-0.77-1.018-1.539-1.8-2.297-2.404C340.627,175.889,343.208,176.552,345.126,176.919z"/>
				<path style="fill:#1A2B32;" d="M344.925,172.822c0.083,1.137,0.142,2.534,0.201,4.097c-1.918-0.367-4.499-1.03-6.903-1.48
					c-2.522-2.037-4.807-2.119-5.802-2.025c-0.166-0.829-0.343-1.658-0.509-2.498C336.72,162.533,344.44,165.6,344.925,172.822z"/>
				<path style="fill:#1A2B32;" d="M342.592,198.125c0.035,0.746,0.024,1.421-0.035,2.013c-0.45,4.085-2.546-10.124-6.714-9.401
					c-0.249-1.291-0.497-2.605-0.758-3.931C340.13,187.315,342.332,193.732,342.592,198.125z"/>
				<path style="fill:#F9FBFC;" d="M335.844,190.737c1.954,10.42,3.493,19.596,4.44,26.795c0.379,2.854,0.663,5.399,0.841,7.59
					c0.864,10.372,2.924,35.817-0.391,56.727c-0.035,0-0.059,0-0.095,0c-0.58,3.126-1.338,6.702-2.238,10.668
					c0,0.012-0.012,0.012-0.012,0.024c-1.066,3.635-2.368,6.962-3.978,9.839c3.576-9.306,5.743-29.565,5.553-54.395
					c-0.178-24.817-7.329-53.885-9.283-67.774c-1.089-7.684-2.179-15.12-3.043-21.845c1.006-0.189,1.575-0.237,1.575-0.237
					c0.189,0.935,0.391,1.871,0.592,2.794c0.722,3.386,1.433,6.725,2.108,9.993c0.166,0.841,0.343,1.67,0.509,2.498
					c0.118,0.58,0.237,1.16,0.355,1.74c0.817,4.002,1.587,7.898,2.309,11.651C335.346,188.132,335.595,189.446,335.844,190.737z"/>
				<path style="fill:#80A1AD;" d="M286.268,252.082c0.142,0.095,2.664,1.859,10.396,14.445
					c7.969,12.977,18.625,27.186,18.625,27.186S300.476,259.198,286.268,252.082z M311.393,183.325
					c-0.331,0.26-6.015,4.464-16.15,1.456c-6.737-2.001-10.23-4.819-11.852-6.56c0.829,0.237,1.705,0.438,2.617,0.604
					c17.157,3.185,27.197-15.44,33.07-17.879c1.717,4.523-1.101,8.205-1.338,11.26c-0.249,3.067,4.038-3.789,4.346-12.397
					c2.38-0.793,4.31-1.231,5.553-1.444c0.864,6.725,1.954,14.161,3.043,21.845c1.954,13.889,9.105,42.957,9.283,67.774
					c0.19,24.829-1.977,45.088-5.553,54.395c-0.935,1.693-1.989,3.232-3.138,4.594c-2.167,2.51-4.701,4.381-7.684,5.435
					c-31.069,10.917-29.98,24.427-73.588,24.427v-6.121c17.642,0,26.451-1.231,38.765-6.133s21.585-11.26,21.585-11.26
					c-13.226,0.9-21.396,7.104-34.384,6.95c-12.989-0.142-11.272-6.95-25.966-6.95v-71.705c11.272,0,19.927-4.57,19.927-4.57
					s-6.867-3.588-19.927-3.588v-9.555c10.289,0,21.798-3.682,29.4,1.468c7.59,5.139,10.443,9.389,11.757,8.904
					c1.303-0.497,2.12-4.582,0-4.582c-2.131,0-2.131,0-2.131,0s-8.975-8.158-15.831-10.94c-6.867-2.771-15.689-2.285-15.689-2.285
					s-1.468,2.451-7.507,2.451v-13.226c8.324,0,8.407-5.387,13.474-5.068c5.056,0.331,6.938,1.468,8.407,0.817
					c1.468-0.651,1.314-7.021-4.405-6.856c-5.719,0.166-6.867,4.985-17.476,4.985v-38.623c11.284,0,15.996,7.152,23.657,12.563
					c6.725,8.513,15.061,15.523,24.841,15.037C307.995,188.061,311.204,183.609,311.393,183.325z M332.291,257.67
					c-0.332-0.971-8.194-23.468-14.185-33.283c-6.015-9.851-19.323-19.702-19.833-20.069c0.509,0.651,17.015,21.467,25.469,37.297
					C331.249,255.693,332.185,257.457,332.291,257.67z M271.254,181.217c6.193,7.495,9.614,11.58,4.381,17.618l3.919-0.983
					c0,0,20.259,20.247,31.365,41.477c2.558,4.89,4.535,8.892,6.05,12.16c3.209,7.933,5.115,13.652,5.115,13.652
					s-0.036-2.711-5.115-13.652c-4.263-10.526-10.786-24.924-18.139-35.059c-12.906-17.76-13.557-18.909-16.659-23.479
					C279.164,188.523,271.716,181.643,271.254,181.217z M311.405,196.538c4.416-0.651,3.884-5.387,3.884-5.387
					s-5.352,4.251-11.722,3.434C303.567,194.585,307,197.202,311.405,196.538z"/>
				<path style="fill:#526C77;" d="M338.223,175.439c-2.155-0.403-4.168-0.628-5.447-0.284c-0.118-0.58-0.237-1.16-0.355-1.74
					C333.416,173.32,335.701,173.402,338.223,175.439z"/>
				<path style="fill:#1A2B32;" d="M334.411,302.379c1.61-2.877,2.913-6.204,3.978-9.839c-1.61,7.057-3.718,15.333-6.181,24.356
					l-0.012,0.012c-27.6,24.012-57.011,32.632-57.923,32.893c1.243-0.829,48.83-32.466,57-42.827
					C332.422,305.612,333.475,304.073,334.411,302.379z"/>
				<path style="fill:#526C77;" d="M332.291,257.67c-0.107-0.213-1.042-1.977-8.549-16.055
					c-8.454-15.831-24.96-36.646-25.469-37.297c0.509,0.367,13.818,10.218,19.833,20.069
					C324.098,234.203,331.96,256.699,332.291,257.67z"/>
				<path style="fill:#526C77;" d="M274.274,349.8c0.912-0.26,30.323-8.88,57.923-32.893c-0.308,1.113-0.616,2.226-0.923,3.363
					c0,0,0,0.012-0.012,0.012c-13.96,18.885-66.401,38.919-66.401,38.919h-14.86v-6.524c15.025,0,18.945-5.068,18.945-5.068
					s-7.021,0.166-18.945,0v-10.775c43.608,0,42.519-13.51,73.588-24.427c2.984-1.054,5.518-2.925,7.684-5.435
					C323.103,317.334,275.517,348.971,274.274,349.8z"/>
				<path style="fill:#80A1AD;" d="M329.213,158.128c0,0-0.568,0.047-1.575,0.237c-0.71-5.411-1.279-10.349-1.598-14.576
					C327.129,148.62,328.195,153.416,329.213,158.128z"/>
				<path style="fill:#1A2B32;" d="M283.391,178.221c-3.907-1.077-7.009-2.782-9.733-4.712
					c-7.661-5.411-12.373-12.563-23.657-12.563v-7.531c37.759,0,55.271-7.625,75.53-11.9c0.166,0.746,0.343,1.504,0.509,2.25
					c0,0.012,0,0.012,0,0.024c0.32,4.227,0.888,9.164,1.598,14.576c-1.243,0.213-3.173,0.651-5.553,1.444
					c-0.935,0.32-1.942,0.687-3.008,1.137c-5.873,2.439-15.913,21.064-33.07,17.879C285.096,178.66,284.219,178.458,283.391,178.221
					z"/>
				<path style="fill:#80A1AD;" d="M316.97,251.49c5.079,10.941,5.115,13.652,5.115,13.652S320.179,259.423,316.97,251.49z"/>
				<path style="fill:#1A2B32;" d="M319.077,160.946c1.066-0.45,2.072-0.817,3.008-1.137c-0.308,8.608-4.594,15.464-4.346,12.397
					C317.976,169.152,320.794,165.469,319.077,160.946z"/>
				<path style="fill:#F9FBFC;" d="M331.261,320.282c-5.091,18.293-11.592,39.357-18.589,59.652l-1.729,1.764v0.012l-0.024,0.012
					l-21.964,22.473c-3.019-11.568-7.838-21.443-12.373-28.961c-6.11-10.159-11.722-16.032-11.722-16.032
					S317.301,339.168,331.261,320.282z"/>
				<path style="fill:#1A2B32;" d="M298.83,216.43c7.353,10.135,13.877,24.533,18.139,35.059c-1.516-3.268-3.493-7.27-6.05-12.16
					c-11.106-21.23-31.365-41.477-31.365-41.477l-3.919,0.983c5.233-6.039,1.812-10.123-4.381-17.618
					c0.462,0.426,7.909,7.305,10.917,11.734C285.273,197.521,285.924,198.67,298.83,216.43z"/>
				<path style="fill:#526C77;" d="M315.289,191.151c0,0,0.533,4.736-3.884,5.387c-4.405,0.663-7.838-1.954-7.838-1.954
					C309.937,195.402,315.289,191.151,315.289,191.151z"/>
				<path style="fill:#1A2B32;" d="M310.943,381.698l1.729-1.764c-8.809,25.575-18.424,49.931-27.008,66.022
					c-1.362,0.296-2.735,0.58-4.109,0.852c1.906-3.966,9.993-20.59,16.944-34.396c7.838-15.546,12.29-30.217,12.444-30.702V381.698z
					"/>
				<path style="fill:#F9FBFC;" d="M310.919,381.722l0.024-0.012c-0.154,0.485-4.606,15.156-12.444,30.702
					c-6.95,13.806-15.037,30.43-16.944,34.396c-1.646,0.32-3.304,0.616-4.973,0.876c-1.35-23.148-8.182-46.663-14.481-54.62
					c-2.629-5.53-4.795-8.951-4.795-8.951l3.375-1.551l15.404-3.967c0,0,6.37,10.289,8.703,19.11
					c2.321,8.821,1.717,14.706,1.717,14.706L310.919,381.722z"/>
				<path style="fill:#526C77;" d="M310.919,381.722l-24.415,30.69c0,0,0.604-5.885-1.717-14.706
					c-2.333-8.821-8.703-19.11-8.703-19.11l-15.404,3.967l15.902-7.329c4.535,7.519,9.354,17.393,12.373,28.961L310.919,381.722z"/>
				<path style="fill:#526C77;" d="M315.289,293.712c0,0-10.656-14.208-18.625-27.186c-7.732-12.586-10.254-14.35-10.396-14.445
					C300.476,259.198,315.289,293.712,315.289,293.712z"/>
				<path style="fill:#1A2B32;" d="M311.393,183.325c-0.189,0.284-3.398,4.736-12.894,5.222c-9.78,0.485-18.116-6.524-24.841-15.037
					c2.723,1.93,5.825,3.635,9.733,4.712c1.622,1.741,5.115,4.559,11.852,6.56C305.378,187.788,311.062,183.585,311.393,183.325z"/>
				<path style="fill:#526C77;" d="M310.351,313.32c0,0-9.271,6.358-21.585,11.26s-21.123,6.133-38.765,6.133V313.32
					c14.694,0,12.977,6.808,25.966,6.95C288.956,320.424,297.125,314.22,310.351,313.32z"/>
				<path style="fill:#1A2B32;" d="M291.158,229.691c2.12,0,1.303,4.085,0,4.582c-1.314,0.486-4.168-3.765-11.757-8.904
					c-7.602-5.151-19.11-1.468-29.4-1.468v-4.985c6.039,0,7.507-2.451,7.507-2.451s8.821-0.485,15.689,2.285
					c6.856,2.782,15.831,10.94,15.831,10.94S289.027,229.691,291.158,229.691z"/>
				<path style="fill:#1A2B32;" d="M276.582,375.233l-15.902,7.329l-3.375,1.551h-7.305v-24.912h14.86
					C264.86,359.201,270.473,365.074,276.582,375.233z"/>
				<path style="fill:#526C77;" d="M276.582,447.685c-1.208,0.201-2.415,0.391-3.623,0.556c-0.237-5.068-1.054-20.993-2.38-29.104
					c-1.669-10.218-5.399-19.596-8.478-26.072C268.401,401.022,275.233,424.537,276.582,447.685z"/>
				<path style="fill:#1A2B32;" d="M265.452,405.497c0.166,1.125,3.86,25.208,1.291,43.49c-5.506,0.556-11.094,0.841-16.742,0.841
					v-65.714h7.305c0,0,2.167,3.422,4.795,8.951c3.078,6.477,6.808,15.854,8.478,26.072c1.326,8.111,2.143,24.036,2.38,29.104
					c-0.864,0.118-1.717,0.237-2.581,0.332C270.378,448.573,271.905,421.387,265.452,405.497z"/>
				<path style="fill:#1A2B32;" d="M267.477,194.585c5.719-0.166,5.873,6.204,4.405,6.856c-1.468,0.651-3.351-0.486-8.407-0.817
					c-5.068-0.32-5.151,5.068-13.474,5.068v-6.122C260.61,199.57,261.758,194.751,267.477,194.585z"/>
				<path style="fill:#253A45;" d="M265.452,405.497c6.453,15.89,4.926,43.075,4.926,43.075c-1.208,0.154-2.415,0.296-3.635,0.414
					C269.312,430.705,265.618,406.622,265.452,405.497z"/>
				<path style="fill:#1A2B32;" d="M268.945,347.61c0,0-3.919,5.068-18.945,5.068v-5.068
					C261.924,347.776,268.945,347.61,268.945,347.61z"/>
				<path style="fill:#1A2B32;" d="M250.001,233.457c13.06,0,19.927,3.588,19.927,3.588s-8.655,4.57-19.927,4.57V233.457z"/>
				<path style="fill:#FA6564;" d="M85.383,285.199c0,15.333,2.096,30.181,6.027,44.271c8.312-3.907,15.535-7.306,19.537-9.188
					v-0.012c2.12-0.995,3.339-1.563,3.339-1.563s0,0,0.983-2.285c0.983-2.285,32.005-32.016,34.609-34.574
					c2.569-2.522,4.878-0.035,9.389,0c-3.315-20.91-1.255-46.355-0.391-56.727c0.178-2.19,0.462-4.736,0.841-7.59
					c0,0-5.091,1.385-8.691-3.185c-3.102-3.955,0.983-23.385,1.314-37.238c0.047-1.989,0.012-3.86-0.13-5.565
					c-5.778-0.864-12.018-1.977-17.95-3.386C104.09,197.983,85.383,239.413,85.383,285.199z"/>
				<path style="fill:#253A45;" d="M110.946,320.282c-4.002,1.883-11.225,5.281-19.537,9.188
					c8.726,31.365,26.522,58.965,50.369,79.78l13.119-27.553c-1.077,0.024-11.083,0.142-20.034-0.77
					c-9.472-0.983-13.226-5.695-13.226-5.695l-0.012-0.083L110.946,320.282z"/>
				<path style="fill:#1A2B32;" d="M110.946,320.27v0.012l10.68,54.868c-0.178-1.61-3.22-27.979-7.341-56.443
					C114.285,318.707,113.065,319.276,110.946,320.27z"/>
				<path style="fill:#253A45;" d="M160.012,321.975c-0.343-0.616-5.719-10.609-7.27-19.596c-1.587-9.271,0-17.725,0-17.725
					S153.334,299.585,160.012,321.975z M187.328,379.934c-6.998-20.294-13.498-41.358-18.589-59.652
					c-0.012,0-0.012-0.012-0.012-0.012c-0.308-1.137-0.616-2.25-0.924-3.363l-0.012-0.012c-2.463-9.022-4.57-17.299-6.181-24.356
					c0-0.012-0.012-0.012-0.012-0.024c-0.971-3.339-1.729-6.927-2.333-10.668c-4.511-0.035-6.82-2.522-9.389,0
					c-2.605,2.557-33.627,32.289-34.609,34.574c-0.983,2.285-0.983,2.285-0.983,2.285c4.12,28.464,7.163,54.833,7.341,56.443
					l0.012,0.083c0,0,31.495,6.11,33.271,6.453l10.242-21.502l-18.755,52.962c19.465,15.783,42.602,27.221,67.94,32.81
					C205.752,429.865,196.137,405.509,187.328,379.934z"/>
				<path style="fill:#1A2B32;" d="M121.638,375.233c0,0,3.753,4.712,13.226,5.695c8.951,0.912,18.956,0.793,20.034,0.77
					l0.012-0.012C153.133,381.343,121.638,375.233,121.638,375.233z"/>
				<path style="fill:#1A2B32;" d="M154.897,381.698l-13.119,27.553c1.516,1.338,3.055,2.629,4.618,3.895l18.755-52.962
					l-10.242,21.502L154.897,381.698z"/>
				<path style="fill:#80A1AD;" d="M151.274,205.596c-0.012,0.533,0.012,4.026,1.752,6.465c2.676,3.742,8.608,3.718,4.357,3.351
					C151.795,214.927,150.801,211.363,151.274,205.596z M152.34,177.108c-0.331,13.853-4.416,33.283-1.314,37.238
					c3.599,4.57,8.691,3.185,8.691,3.185c0.947-7.199,2.486-16.375,4.44-26.795c-4.168-0.722-6.263,13.486-6.713,9.401
					c-0.059-0.592-0.071-1.267-0.036-2.013l-2.948-0.189c0,0,0.083-12.705,0.414-21.017
					C153.749,177.12,152.849,177.215,152.34,177.108z"/>
				<path style="fill:#F9FBFC;" d="M151.274,205.596c-0.474,5.766,0.521,9.33,6.11,9.816c4.251,0.367-1.681,0.391-4.357-3.351
					C151.286,209.622,151.262,206.129,151.274,205.596z"/>
				<path style="fill:#526C77;" d="M152.21,171.544c0.142,1.705,0.178,3.576,0.13,5.565c0.509,0.107,1.409,0.012,2.534-0.189
					c0.059-1.563,0.118-2.96,0.201-4.097c0.485-7.223,8.205-10.289,13.012-1.906c0.675-3.268,1.385-6.607,2.108-9.993
					c-10.976-4.073-19.193-1.835-18.021,10.147C152.186,171.224,152.198,171.39,152.21,171.544z"/>
				<path style="fill:#526C77;" d="M152.742,284.655c0,0-1.587,8.454,0,17.725c1.551,8.987,6.927,18.98,7.27,19.596
					C153.334,299.585,152.742,284.655,152.742,284.655z"/>
				<path style="fill:#80A1AD;" d="M154.459,197.936l2.948,0.189c0.261-4.393,2.463-10.81,7.507-11.319
					c0.722-3.753,1.492-7.649,2.309-11.651c-1.279-0.343-3.292-0.118-5.447,0.284c-0.758,0.604-1.527,1.385-2.297,2.404
					C155.324,183.36,154.459,197.936,154.459,197.936z"/>
				<path style="fill:#1A2B32;" d="M154.874,176.919c-0.331,8.312-0.414,21.017-0.414,21.017s0.864-14.576,5.02-20.093
					c0.77-1.018,1.539-1.8,2.297-2.404C159.373,175.889,156.792,176.552,154.874,176.919z"/>
				<path style="fill:#1A2B32;" d="M155.075,172.822c-0.083,1.137-0.142,2.534-0.201,4.097c1.918-0.367,4.499-1.03,6.903-1.48
					c2.522-2.037,4.807-2.119,5.802-2.025c0.166-0.829,0.343-1.658,0.509-2.498C163.28,162.533,155.56,165.6,155.075,172.822z"/>
				<path style="fill:#1A2B32;" d="M157.407,198.125c-0.035,0.746-0.024,1.421,0.036,2.013c0.45,4.085,2.546-10.124,6.713-9.401
					c0.249-1.291,0.497-2.605,0.758-3.931C159.87,187.315,157.668,193.732,157.407,198.125z"/>
				<path style="fill:#F9FBFC;" d="M167.578,173.414c-0.118,0.58-0.237,1.16-0.355,1.74c-0.817,4.002-1.587,7.898-2.309,11.651
					c-0.26,1.326-0.509,2.64-0.758,3.931c-1.954,10.42-3.493,19.596-4.44,26.795c-0.379,2.854-0.663,5.399-0.841,7.59
					c-0.864,10.372-2.925,35.817,0.391,56.727c0.036,0,0.059,0,0.095,0c0.58,3.126,1.338,6.702,2.238,10.668
					c0,0.012,0.012,0.012,0.012,0.024c1.066,3.635,2.368,6.962,3.978,9.839c-3.576-9.306-5.743-29.565-5.553-54.395
					c0.178-24.817,7.329-53.885,9.283-67.774c1.089-7.684,2.179-15.12,3.043-21.845c-1.006-0.189-1.575-0.237-1.575-0.237
					c-0.189,0.935-0.391,1.871-0.592,2.794c-0.722,3.386-1.433,6.725-2.108,9.993C167.922,171.757,167.744,172.585,167.578,173.414z
					"/>
				<path style="fill:#80A1AD;" d="M213.732,252.082c-0.142,0.095-2.664,1.859-10.396,14.445
					c-7.969,12.977-18.625,27.186-18.625,27.186S199.524,259.198,213.732,252.082z M201.726,204.318
					c-0.509,0.651-17.015,21.467-25.469,37.297c-7.507,14.078-8.442,15.842-8.549,16.055c0.332-0.971,8.194-23.468,14.185-33.283
					C187.908,214.536,201.217,204.685,201.726,204.318z M188.607,183.325c0.332,0.26,6.015,4.464,16.15,1.456
					c6.737-2.001,10.23-4.819,11.852-6.56c-0.829,0.237-1.705,0.438-2.617,0.604c-17.157,3.185-27.197-15.44-33.07-17.879
					c-1.717,4.523,1.101,8.205,1.338,11.26c0.249,3.067-4.038-3.789-4.345-12.397c-2.38-0.793-4.31-1.231-5.553-1.444
					c-0.864,6.725-1.954,14.161-3.043,21.845c-1.954,13.889-9.105,42.957-9.283,67.774c-0.189,24.829,1.977,45.088,5.553,54.395
					c0.935,1.693,1.989,3.232,3.138,4.594c2.167,2.51,4.701,4.381,7.684,5.435c31.069,10.917,29.98,24.427,73.588,24.427v-6.121
					c-17.642,0-26.451-1.231-38.765-6.133s-21.585-11.26-21.585-11.26c13.226,0.9,21.396,7.104,34.385,6.95
					c12.989-0.142,11.272-6.95,25.966-6.95v-71.705c-11.272,0-19.927-4.57-19.927-4.57s6.867-3.588,19.927-3.588v-9.555
					c-10.289,0-21.798-3.682-29.4,1.468c-7.59,5.139-10.443,9.389-11.758,8.904c-1.302-0.497-2.119-4.582,0-4.582
					c2.131,0,2.131,0,2.131,0s8.975-8.158,15.831-10.94c6.867-2.771,15.688-2.285,15.688-2.285s1.468,2.451,7.507,2.451v-13.226
					c-8.324,0-8.407-5.387-13.474-5.068c-5.056,0.331-6.938,1.468-8.407,0.817c-1.468-0.651-1.314-7.021,4.405-6.856
					c5.719,0.166,6.867,4.985,17.476,4.985v-38.623c-11.284,0-15.996,7.152-23.657,12.563c-6.725,8.513-15.061,15.523-24.841,15.037
					C192.005,188.061,188.796,183.609,188.607,183.325z M228.746,181.217c-6.193,7.495-9.614,11.58-4.381,17.618l-3.919-0.983
					c0,0-20.259,20.247-31.365,41.477c-2.557,4.89-4.535,8.892-6.05,12.16c-3.209,7.933-5.115,13.652-5.115,13.652
					s0.036-2.711,5.115-13.652c4.262-10.526,10.786-24.924,18.139-35.059c12.906-17.76,13.557-18.909,16.659-23.479
					C220.836,188.523,228.284,181.643,228.746,181.217z M188.595,196.538c-4.416-0.651-3.884-5.387-3.884-5.387
					s5.352,4.251,11.722,3.434C196.433,194.585,193,197.202,188.595,196.538z"/>
				<path style="fill:#526C77;" d="M161.777,175.439c2.155-0.403,4.168-0.628,5.447-0.284c0.118-0.58,0.237-1.16,0.355-1.74
					C166.584,173.32,164.299,173.402,161.777,175.439z"/>
				<path style="fill:#1A2B32;" d="M165.589,302.379c-1.61-2.877-2.913-6.204-3.978-9.839c1.61,7.057,3.718,15.333,6.181,24.356
					l0.012,0.012c27.6,24.012,57.011,32.632,57.923,32.893c-1.243-0.829-48.83-32.466-56.999-42.827
					C167.578,305.612,166.525,304.073,165.589,302.379z"/>
				<path style="fill:#526C77;" d="M167.709,257.67c0.107-0.213,1.042-1.977,8.549-16.055c8.454-15.831,24.959-36.646,25.469-37.297
					c-0.509,0.367-13.818,10.218-19.833,20.069C175.902,234.203,168.04,256.699,167.709,257.67z"/>
				<path style="fill:#526C77;" d="M225.726,349.8c-0.912-0.26-30.323-8.88-57.923-32.893c0.308,1.113,0.616,2.226,0.924,3.363
					c0,0,0,0.012,0.012,0.012c13.96,18.885,66.401,38.919,66.401,38.919h14.86v-6.524c-15.025,0-18.945-5.068-18.945-5.068
					s7.021,0.166,18.945,0v-10.775c-43.608,0-42.519-13.51-73.588-24.427c-2.984-1.054-5.518-2.925-7.684-5.435
					C176.897,317.334,224.483,348.971,225.726,349.8z"/>
				<path style="fill:#80A1AD;" d="M170.787,158.128c0,0,0.568,0.047,1.575,0.237c0.71-5.411,1.279-10.349,1.598-14.576
					C172.871,148.62,171.805,153.416,170.787,158.128z"/>
				<path style="fill:#1A2B32;" d="M226.342,173.509c7.661-5.411,12.373-12.563,23.657-12.563v-7.531
					c-37.759,0-55.271-7.625-75.53-11.9c-0.166,0.746-0.343,1.504-0.509,2.25c0,0.012,0,0.012,0,0.024
					c-0.32,4.227-0.888,9.164-1.598,14.576c1.243,0.213,3.173,0.651,5.553,1.444c0.935,0.32,1.942,0.687,3.007,1.137
					c5.873,2.439,15.913,21.064,33.07,17.879c0.912-0.166,1.788-0.367,2.617-0.604C220.517,177.144,223.619,175.439,226.342,173.509
					z"/>
				<path style="fill:#80A1AD;" d="M183.03,251.49c-5.079,10.941-5.115,13.652-5.115,13.652S179.821,259.423,183.03,251.49z"/>
				<path style="fill:#1A2B32;" d="M180.922,160.946c-1.066-0.45-2.072-0.817-3.007-1.137c0.308,8.608,4.594,15.464,4.345,12.397
					C182.024,169.152,179.206,165.469,180.922,160.946z"/>
				<path style="fill:#F9FBFC;" d="M168.739,320.282c5.091,18.293,11.592,39.357,18.589,59.652l1.729,1.764v0.012l0.024,0.012
					l21.964,22.473c3.019-11.568,7.838-21.443,12.373-28.961c6.11-10.159,11.722-16.032,11.722-16.032
					S182.698,339.168,168.739,320.282z"/>
				<path style="fill:#1A2B32;" d="M201.169,216.43c-7.353,10.135-13.877,24.533-18.139,35.059c1.516-3.268,3.493-7.27,6.05-12.16
					c11.106-21.23,31.365-41.477,31.365-41.477l3.919,0.983c-5.233-6.039-1.812-10.123,4.381-17.618
					c-0.462,0.426-7.909,7.305-10.917,11.734C214.727,197.521,214.075,198.67,201.169,216.43z"/>
				<path style="fill:#526C77;" d="M184.711,191.151c0,0-0.533,4.736,3.884,5.387c4.405,0.663,7.838-1.954,7.838-1.954
					C190.063,195.402,184.711,191.151,184.711,191.151z"/>
				<path style="fill:#1A2B32;" d="M189.057,381.698l-1.729-1.764c8.809,25.575,18.424,49.931,27.008,66.022
					c1.362,0.296,2.735,0.58,4.109,0.852c-1.906-3.966-9.993-20.59-16.944-34.396c-7.838-15.546-12.29-30.217-12.444-30.702V381.698
					z"/>
				<path style="fill:#F9FBFC;" d="M189.08,381.722l-0.024-0.012c0.154,0.485,4.606,15.156,12.444,30.702
					c6.95,13.806,15.037,30.43,16.944,34.396c1.646,0.32,3.303,0.616,4.973,0.876c1.35-23.148,8.182-46.663,14.481-54.62
					c2.629-5.53,4.795-8.951,4.795-8.951l-3.374-1.551l-15.404-3.967c0,0-6.37,10.289-8.703,19.11
					c-2.321,8.821-1.717,14.706-1.717,14.706L189.08,381.722z"/>
				<path style="fill:#526C77;" d="M189.08,381.722l24.415,30.69c0,0-0.604-5.885,1.717-14.706c2.333-8.821,8.703-19.11,8.703-19.11
					l15.404,3.967l-15.902-7.329c-4.535,7.519-9.354,17.393-12.373,28.961L189.08,381.722z"/>
				<path style="fill:#526C77;" d="M184.711,293.712c0,0,10.656-14.208,18.625-27.186c7.732-12.586,10.254-14.35,10.396-14.445
					C199.524,259.198,184.711,293.712,184.711,293.712z"/>
				<path style="fill:#1A2B32;" d="M188.607,183.325c0.189,0.284,3.398,4.736,12.894,5.222c9.78,0.485,18.116-6.524,24.841-15.037
					c-2.723,1.93-5.825,3.635-9.733,4.712c-1.622,1.741-5.115,4.559-11.852,6.56C194.622,187.788,188.938,183.585,188.607,183.325z"
					/>
				<path style="fill:#526C77;" d="M189.649,313.32c0,0,9.271,6.358,21.585,11.26s21.123,6.133,38.765,6.133V313.32
					c-14.694,0-12.977,6.808-25.966,6.95C211.044,320.424,202.874,314.22,189.649,313.32z"/>
				<path style="fill:#1A2B32;" d="M208.842,229.691c-2.119,0-1.302,4.085,0,4.582c1.314,0.486,4.168-3.765,11.758-8.904
					c7.602-5.151,19.11-1.468,29.4-1.468v-4.985c-6.039,0-7.507-2.451-7.507-2.451s-8.821-0.485-15.688,2.285
					c-6.856,2.782-15.831,10.94-15.831,10.94S210.973,229.691,208.842,229.691z"/>
				<path style="fill:#1A2B32;" d="M223.418,375.233l15.902,7.329l3.374,1.551h7.305v-24.912h-14.86
					C235.139,359.201,229.527,365.074,223.418,375.233z"/>
				<path style="fill:#526C77;" d="M223.418,447.685c1.208,0.201,2.415,0.391,3.623,0.556c0.237-5.068,1.054-20.993,2.38-29.104
					c1.669-10.218,5.399-19.596,8.478-26.072C231.599,401.022,224.767,424.537,223.418,447.685z"/>
				<path style="fill:#1A2B32;" d="M234.547,405.497c-0.166,1.125-3.86,25.208-1.291,43.49c5.506,0.556,11.094,0.841,16.742,0.841
					v-65.714h-7.305c0,0-2.167,3.422-4.795,8.951c-3.078,6.477-6.808,15.854-8.478,26.072c-1.326,8.111-2.143,24.036-2.38,29.104
					c0.864,0.118,1.717,0.237,2.581,0.332C229.622,448.573,228.094,421.387,234.547,405.497z"/>
				<path style="fill:#1A2B32;" d="M232.523,194.585c-5.719-0.166-5.873,6.204-4.405,6.856c1.468,0.651,3.351-0.486,8.407-0.817
					c5.068-0.32,5.151,5.068,13.474,5.068v-6.122C239.39,199.57,238.242,194.751,232.523,194.585z"/>
				<path style="fill:#253A45;" d="M234.547,405.497c-6.453,15.89-4.926,43.075-4.926,43.075c1.208,0.154,2.415,0.296,3.635,0.414
					C230.687,430.705,234.382,406.622,234.547,405.497z"/>
				<path style="fill:#1A2B32;" d="M231.055,347.61c0,0,3.919,5.068,18.945,5.068v-5.068
					C238.076,347.776,231.055,347.61,231.055,347.61z"/>
				<path style="fill:#1A2B32;" d="M249.999,233.457c-13.06,0-19.927,3.588-19.927,3.588s8.655,4.57,19.927,4.57V233.457z"/>
			</g>
			<g>
				<g>
					<path style="fill:#1A2B32;" d="M266.39,181.193c-1.47-5.916-7.385-21.382-7.385-21.382l12.285,11.302
						c0,0,0.367,6.724-0.98,8.078C268.962,180.543,266.39,181.193,266.39,181.193z"/>
				</g>
				<g>
					<path style="fill:#1A2B32;" d="M233.61,181.193c1.47-5.916,7.385-21.382,7.385-21.382l-12.285,11.302
						c0,0-0.367,6.724,0.98,8.078C231.037,180.543,233.61,181.193,233.61,181.193z"/>
				</g>
			</g>
			<g>
				<path style="fill:#F9FBFC;" d="M257.512,188.566c-2.317,0.145-3.838-13.575-1.306-14.147
					C258.737,173.847,259.799,188.423,257.512,188.566z"/>
			</g>
			<g>
				<path style="fill:#F9FBFC;" d="M275.395,226.68c-1.88-1.39-8.819-1.796-9.064,0C266.087,228.476,277.274,228.068,275.395,226.68
					z"/>
			</g>
			<g>
				<path style="fill:#F9FBFC;" d="M322.09,171.563c-1.293,3.346-4.355,10.963-11.95,15.239c0,0,5.634-0.268,9.064-5.774
					S322.09,171.563,322.09,171.563z"/>
			</g>
			<g>
				<path style="fill:#F9FBFC;" d="M181.782,178.313c3.076,5.114,6.51,7.499,10.04,9.607c0,0-3.612-0.022-6.914-2.529
					C181.605,182.885,181.782,178.313,181.782,178.313z"/>
			</g>
			<g>
				<path style="fill:#F9FBFC;" d="M303.228,302.38c0.845-7.88-10.174-33.156-12.593-34.626c-2.419-1.47,2.678,5.634,5.641,18.618
					C299.24,299.355,302.562,308.589,303.228,302.38z"/>
			</g>
		</g>
		<g>
			<g>
				<g>
					<g>
						<path style="fill:#1A2B32;" d="M289.888,186.801c-6.863,0-13.101-0.951-15.894-3.881
							c-5.813-6.098-14.299-21.268-14.657-21.911l-0.329-0.591v-13.211h65.797l-0.08,2.682c-0.01,0.308-0.237,7.62-1.164,15.271
							c-1.808,14.929-4.653,17.71-7.198,18.462C314.638,184.13,301.387,186.801,289.888,186.801z M264.215,159.058
							c1.615,2.843,8.794,15.283,13.549,20.27c4.094,4.295,29.871,1.397,37.024-0.671c1.974-1.539,4.029-13.393,4.629-26.242
							h-55.202V159.058z"/>
					</g>
					<path style="fill:#80A1AD;" d="M264.215,155.612c0,2.284,0.607,4.528,1.766,6.496c2.863,4.861,8.064,13.32,11.783,17.22
						c4.094,4.295,29.871,1.397,37.024-0.671c1.817-1.417,3.704-11.579,4.46-23.21c0.107-1.641-1.2-3.033-2.844-3.033h-52.189
						V155.612z"/>
					<g>
						<path style="fill:#F9FBFC;" d="M323.506,154.291c0,0-0.008,0.377-0.022,1.037c-0.031,0.659-0.052,1.603-0.137,2.731
							c-0.084,1.128-0.173,2.446-0.324,3.852c-0.139,1.408-0.342,2.904-0.555,4.399c-0.239,1.491-0.485,2.982-0.792,4.367
							c-0.287,1.388-0.645,2.665-0.959,3.755c-0.323,1.089-0.678,1.969-0.929,2.579c-0.264,0.607-0.436,0.943-0.436,0.943
							s0.132-0.354,0.322-0.985c0.204-0.626,0.439-1.536,0.705-2.629c0.259-1.096,0.51-2.385,0.759-3.77
							c0.252-1.384,0.489-2.868,0.714-4.353c0.213-1.484,0.425-2.959,0.627-4.372c0.186-1.369,0.368-2.706,0.52-3.821
							c0.144-1.068,0.277-2.061,0.364-2.706C323.454,154.665,323.506,154.291,323.506,154.291z"/>
					</g>
					<g>
						<path style="fill:#F9FBFC;" d="M316.168,181.745c0,0-0.173,0.07-0.476,0.194c-0.308,0.106-0.745,0.278-1.282,0.43
							c-0.537,0.153-1.162,0.34-1.84,0.504c-0.677,0.167-1.404,0.321-2.131,0.469c-0.73,0.137-1.461,0.271-2.15,0.372
							c-0.688,0.108-1.337,0.172-1.89,0.24c-0.553,0.069-1.021,0.085-1.345,0.114c-0.327,0.014-0.513,0.022-0.513,0.022
							s0.178-0.051,0.493-0.142c0.316-0.078,0.762-0.215,1.305-0.339c0.536-0.126,1.226-0.288,1.851-0.434
							c0.714-0.149,1.412-0.294,2.13-0.444c0.721-0.133,1.423-0.262,2.139-0.394c0.635-0.104,1.331-0.219,1.874-0.308
							c0.473-0.073,1.02-0.158,1.33-0.206C315.983,181.774,316.168,181.745,316.168,181.745z"/>
					</g>
					<g>
						<path style="fill:#F9FBFC;" d="M266.172,164.914c0,0,0.142,0.209,0.392,0.574c0.24,0.358,0.636,0.946,1.02,1.517
							c0.415,0.625,0.928,1.397,1.428,2.149c0.531,0.81,1.07,1.635,1.618,2.472c0.543,0.84,1.078,1.666,1.605,2.48
							c0.488,0.757,0.992,1.536,1.398,2.166c0.374,0.575,0.762,1.172,0.996,1.532c0.24,0.373,0.376,0.585,0.376,0.585
							s-0.171-0.185-0.473-0.511c-0.288-0.335-0.719-0.801-1.183-1.401c-0.468-0.596-1.016-1.292-1.567-2.063
							c-0.554-0.768-1.119-1.606-1.674-2.45c-0.546-0.85-1.081-1.706-1.561-2.522c-0.483-0.814-0.899-1.595-1.263-2.26
							c-0.364-0.664-0.627-1.241-0.825-1.636C266.277,165.145,266.172,164.914,266.172,164.914z"/>
					</g>
				</g>
				<g>
					<g>
						<path style="fill:#1A2B32;" d="M184.485,183.621c-2.545-0.752-5.39-3.533-7.198-18.462c-0.927-7.65-1.154-14.963-1.164-15.271
							l-0.08-2.682h65.797v13.211l-0.329,0.591c-0.358,0.643-8.845,15.813-14.657,21.911c-2.793,2.93-9.03,3.881-15.894,3.881
							C199.46,186.801,186.209,184.13,184.485,183.621z M236.632,152.414H181.43c0.6,12.849,2.655,24.703,4.629,26.242
							c7.153,2.068,32.931,4.967,37.024,0.671c4.755-4.987,11.934-17.427,13.549-20.27V152.414z"/>
					</g>
					<path style="fill:#80A1AD;" d="M236.632,152.414h-52.189c-1.644,0-2.951,1.392-2.844,3.033
						c0.756,11.631,2.642,21.793,4.46,23.21c7.153,2.068,32.931,4.967,37.024,0.671c3.719-3.9,8.92-12.359,11.783-17.22
						c1.159-1.968,1.766-4.212,1.766-6.496V152.414z"/>
					<g>
						<path style="fill:#F9FBFC;" d="M177.341,154.291c0,0,0.052,0.374,0.142,1.027c0.087,0.645,0.221,1.639,0.364,2.706
							c0.152,1.115,0.334,2.452,0.52,3.821c0.203,1.412,0.414,2.887,0.627,4.372c0.224,1.485,0.462,2.969,0.714,4.353
							c0.248,1.385,0.5,2.674,0.759,3.77c0.266,1.093,0.501,2.003,0.706,2.629c0.19,0.631,0.322,0.985,0.322,0.985
							s-0.172-0.336-0.436-0.943c-0.252-0.611-0.607-1.491-0.929-2.579c-0.314-1.09-0.672-2.367-0.959-3.755
							c-0.306-1.385-0.553-2.876-0.791-4.367c-0.213-1.495-0.416-2.991-0.555-4.399c-0.151-1.407-0.24-2.724-0.324-3.852
							c-0.085-1.128-0.106-2.072-0.137-2.731C177.349,154.669,177.341,154.291,177.341,154.291z"/>
					</g>
				</g>
			</g>
			<path style="fill:#80A1AD;" d="M289.542,180.548c-8.334,0-10.507-1.336-11.055-1.911c-3.669-3.848-8.87-12.327-11.645-17.038
				c-1.064-1.809-1.628-3.88-1.628-5.989v-2.197h51.189c0.517,0,0.996,0.208,1.351,0.586c0.353,0.377,0.529,0.868,0.496,1.382
				c-0.835,12.846-2.791,21.049-3.964,22.377c-4.299,1.186-15.552,2.79-24.742,2.79
				C289.543,180.548,289.543,180.548,289.542,180.548z"/>
			<path style="fill:#80A1AD;" d="M211.306,180.548c-9.193,0-20.446-1.604-24.745-2.79c-1.172-1.328-3.128-9.531-3.963-22.377
				c-0.033-0.514,0.143-1.005,0.496-1.382c0.354-0.378,0.833-0.586,1.35-0.586h51.188v2.197c0,2.11-0.563,4.181-1.627,5.989
				c-2.776,4.713-7.98,13.193-11.646,17.038C221.811,179.212,219.638,180.548,211.306,180.548L211.306,180.548z"/>
			<g>
				<path style="fill:#F9FBFC;" d="M316.35,153.414h-11.164L294.28,180.42c3.991-0.199,8.069-0.613,11.609-1.102L316.35,153.414z"/>
				<path style="fill:#F9FBFC;" d="M216.731,153.414l-10.891,26.97c1.855,0.104,3.699,0.164,5.466,0.164
					c2.391,0,4.261-0.112,5.745-0.283l10.843-26.852H216.731z"/>
			</g>
		</g>
		<g>
			<path style="fill:#1A2B32;" d="M365.74,168.157c-5.932,1.409-12.172,2.522-17.95,3.386c0.012-0.154,0.024-0.32,0.035-0.474
				c1.172-11.982-7.045-14.22-18.021-10.147c-0.201-0.924-0.403-1.859-0.592-2.794c-1.018-4.712-2.084-9.508-3.173-14.339
				c0-0.012,0-0.012,0-0.024c-0.166-0.746-0.343-1.504-0.509-2.25c7.874-1.658,16.162-2.806,26.215-2.806
				c19.572,0,30.11,2.806,35.817,6.512c0.024,0.024,0.047,0.036,0.071,0.047c2.557,2.06,4.168,4.334,4.452,6.832
				C392.938,159.585,380.292,164.723,365.74,168.157z"/>
			<path style="fill:#253A45;" d="M325.53,141.516c-20.259,4.274-37.771,11.9-75.53,11.9v-1.456
				c43.703,0,54.785-10.727,79.804-13.167c0.296-0.024,0.58-0.059,0.876-0.083c25.634-2.262-9.792-1.492-33.757,5.222
				c-19.608,5.494-36.966,5.411-46.923,5.411v-20.756c15.677,0,58.468-1.717,75.613,0c0,0,46.923,4.63,61.949,16.636
				c-5.707-3.706-16.245-6.512-35.817-6.512C341.693,138.71,333.404,139.859,325.53,141.516z"/>
			<path style="fill:#526C77;" d="M296.924,143.932c23.965-6.713,59.391-7.483,33.757-5.222c-0.296,0.024-0.58,0.059-0.876,0.083
				c-25.019,2.439-36.101,13.167-79.804,13.167v-2.617C259.959,149.343,277.316,149.426,296.924,143.932z"/>
			<path style="fill:#526C77;" d="M325.14,127.237c0.308,0.876,0.474,1.35,0.474,1.35c-17.145-1.717-59.936,0-75.613,0v-15.902
				c11.189,0,42.625-0.521,42.625-0.521s-29.719-0.959-42.625-0.959v-0.971c14.966,0,51.352,0.189,69.55,1.717
				c2.25,5.956,4.026,10.869,5.056,13.782c-21.538-2.747-42.389,0.296-42.389,0.296C315.04,124.928,325.14,127.237,325.14,127.237z"
				/>
			<path style="fill:#253A45;" d="M324.607,125.733c0.213,0.58,0.391,1.089,0.533,1.504c0,0-10.1-2.309-42.921-1.208
				C282.218,126.029,303.069,122.986,324.607,125.733z"/>
			<path style="fill:#253A45;" d="M291.158,54.111c8.217,6.903,20.922,38.079,28.393,57.84c-18.199-1.527-54.584-1.717-69.55-1.717
				V66.223c19.43-2.782,24.817-14.208,24.817-14.208s-8.501,2.404-15.748,4.606C269.845,51.979,281.674,46.142,291.158,54.111z"/>
			<path style="fill:#253A45;" d="M250.001,111.205c12.906,0,42.625,0.959,42.625,0.959s-31.436,0.521-42.625,0.521V111.205z"/>
			<path style="fill:#1A2B32;" d="M274.818,52.015c0,0-5.387,11.426-24.817,14.208v-6.228c2.842-0.77,5.861-2.001,8.975-3.339
				c0.036-0.012,0.059-0.024,0.095-0.035C266.317,54.419,274.818,52.015,274.818,52.015z"/>
			<path style="fill:#1A2B32;" d="M134.26,168.157c5.932,1.409,12.172,2.522,17.95,3.386c-0.012-0.154-0.024-0.32-0.036-0.474
				c-1.172-11.982,7.045-14.22,18.021-10.147c0.201-0.924,0.403-1.859,0.592-2.794c1.018-4.712,2.084-9.508,3.173-14.339
				c0-0.012,0-0.012,0-0.024c0.166-0.746,0.343-1.504,0.509-2.25c-7.874-1.658-16.162-2.806-26.215-2.806
				c-19.572,0-30.11,2.806-35.817,6.512c-0.024,0.024-0.047,0.036-0.071,0.047c-2.558,2.06-4.168,4.334-4.452,6.832
				C107.062,159.585,119.708,164.723,134.26,168.157z"/>
			<path style="fill:#253A45;" d="M174.469,141.516c20.259,4.274,37.771,11.9,75.53,11.9v-1.456
				c-43.703,0-54.785-10.727-79.804-13.167c-0.296-0.024-0.58-0.059-0.876-0.083c-25.634-2.262,9.792-1.492,33.757,5.222
				c19.608,5.494,36.966,5.411,46.923,5.411v-20.756c-15.677,0-58.468-1.717-75.613,0c0,0-46.923,4.63-61.949,16.636
				c5.707-3.706,16.245-6.512,35.817-6.512C158.307,138.71,166.596,139.859,174.469,141.516z"/>
			<path style="fill:#526C77;" d="M203.076,143.932c-23.965-6.713-59.391-7.483-33.757-5.222c0.296,0.024,0.58,0.059,0.876,0.083
				c25.019,2.439,36.101,13.167,79.804,13.167v-2.617C240.041,149.343,222.683,149.426,203.076,143.932z"/>
			<path style="fill:#526C77;" d="M174.86,127.237c-0.308,0.876-0.474,1.35-0.474,1.35c17.145-1.717,59.936,0,75.613,0v-15.902
				c-11.189,0-42.625-0.521-42.625-0.521s29.719-0.959,42.625-0.959v-0.971c-14.966,0-51.352,0.189-69.55,1.717
				c-2.25,5.956-4.026,10.869-5.056,13.782c21.538-2.747,42.388,0.296,42.388,0.296C184.96,124.928,174.86,127.237,174.86,127.237z"
				/>
			<path style="fill:#253A45;" d="M175.393,125.733c-0.213,0.58-0.391,1.089-0.533,1.504c0,0,10.1-2.309,42.921-1.208
				C217.781,126.029,196.931,122.986,175.393,125.733z"/>
			<path style="fill:#253A45;" d="M208.842,54.111c-8.217,6.903-20.922,38.079-28.393,57.84c18.199-1.527,54.584-1.717,69.55-1.717
				V66.223c-19.43-2.782-24.817-14.208-24.817-14.208s8.501,2.404,15.748,4.606C230.155,51.979,218.326,46.142,208.842,54.111z"/>
			<path style="fill:#253A45;" d="M249.999,111.205c-12.906,0-42.625,0.959-42.625,0.959s31.436,0.521,42.625,0.521V111.205z"/>
			<path style="fill:#1A2B32;" d="M225.182,52.015c0,0,5.387,11.426,24.817,14.208v-6.228c-2.842-0.77-5.861-2.001-8.975-3.339
				c-0.035-0.012-0.059-0.024-0.095-0.035C233.683,54.419,225.182,52.015,225.182,52.015z"/>
		</g>
	</g>
</g>
</svg>
